<?xml version="1.0" encoding="UTF-8" standalone="no"?>
<!-- Created with Inkscape (http://www.inkscape.org/) -->

<svg
   xmlns:dc="http://purl.org/dc/elements/1.1/"
   xmlns:cc="http://creativecommons.org/ns#"
   xmlns:rdf="http://www.w3.org/1999/02/22-rdf-syntax-ns#"
   xmlns:svg="http://www.w3.org/2000/svg"
   xmlns="http://www.w3.org/2000/svg"
   xmlns:sodipodi="http://sodipodi.sourceforge.net/DTD/sodipodi-0.dtd"
   xmlns:inkscape="http://www.inkscape.org/namespaces/inkscape"
   width="210mm"
   height="297mm"
   viewBox="0 0 210 297"
   version="1.1"
   id="svg8"
   inkscape:version="0.92.5 (2060ec1f9f, 2020-04-08)"
   sodipodi:docname="logo.svg">
  <defs
     id="defs2">
    <inkscape:perspective
       sodipodi:type="inkscape:persp3d"
       inkscape:vp_x="23.434523 : 29.059521 : 1"
       inkscape:vp_y="0 : 1000 : 0"
       inkscape:vp_z="233.43452 : 29.059521 : 1"
       inkscape:persp3d-origin="128.43452 : -20.440479 : 1"
       id="perspective38" />
  </defs>
  <sodipodi:namedview
     id="base"
     pagecolor="#ffffff"
     bordercolor="#666666"
     borderopacity="1.0"
     inkscape:pageopacity="0.0"
     inkscape:pageshadow="2"
     inkscape:zoom="0.35"
     inkscape:cx="-121.42857"
     inkscape:cy="560"
     inkscape:document-units="mm"
     inkscape:current-layer="layer1"
     showgrid="false"
     inkscape:window-width="1294"
     inkscape:window-height="704"
     inkscape:window-x="72"
     inkscape:window-y="27"
     inkscape:window-maximized="1" />
  <metadata
     id="metadata5">
    <rdf:RDF>
      <cc:Work
         rdf:about="">
        <dc:format>image/svg+xml</dc:format>
        <dc:type
           rdf:resource="http://purl.org/dc/dcmitype/StillImage" />
        <dc:title></dc:title>
      </cc:Work>
    </rdf:RDF>
  </metadata>
  <g
     inkscape:label="Layer 1"
     inkscape:groupmode="layer"
     id="layer1">
    <flowRoot
       xml:space="preserve"
       id="flowRoot14"
       style="fill:black;fill-opacity:1;stroke:none;font-family:sans-serif;font-style:normal;font-weight:normal;font-size:40px;line-height:1.25;letter-spacing:0px;word-spacing:0px"><flowRegion
         id="flowRegion16"><rect
           id="rect18"
           width="128.57143"
           height="82.85714"
           x="294.28571"
           y="408.23398" /></flowRegion><flowPara
         id="flowPara20"></flowPara></flowRoot>    <flowRoot
       xml:space="preserve"
       id="flowRoot22"
       style="fill:black;fill-opacity:1;stroke:none;font-family:sans-serif;font-style:normal;font-weight:normal;font-size:40px;line-height:1.25;letter-spacing:0px;word-spacing:0px"><flowRegion
         id="flowRegion24"><rect
           id="rect26"
           width="42.857143"
           height="117.14286"
           x="371.42856"
           y="356.80539" /></flowRegion><flowPara
         id="flowPara28"></flowPara></flowRoot>    <flowRoot
       xml:space="preserve"
       id="flowRoot30"
       style="fill:black;fill-opacity:1;stroke:none;font-family:sans-serif;font-style:normal;font-weight:normal;font-size:40px;line-height:1.25;letter-spacing:0px;word-spacing:0px"><flowRegion
         id="flowRegion32"><rect
           id="rect34"
           width="111.42857"
           height="122.85714"
           x="325.71429"
           y="333.94824" /></flowRegion><flowPara
         id="flowPara36"></flowPara></flowRoot>    <g
       sodipodi:type="inkscape:box3d"
       id="g40"
       inkscape:perspectiveID="#perspective38"
       inkscape:corner0="0.7567475 : 0.24203099 : 0 : 1"
       inkscape:corner7="0.50165542 : 0.17773108 : 0.25 : 1">
      <path
         sodipodi:type="inkscape:box3dside"
         id="path42"
         style="fill:#353564;fill-rule:evenodd;stroke:none;stroke-linejoin:round"
         inkscape:box3dsidetype="6"
         d="m 83.204069,158.34534 v 36.60168 l 18.715661,9.0935 v -32.04185 z"
         points="83.204069,194.94702 101.91973,204.04052 101.91973,171.99867 83.204069,158.34534 " />
      <path
         sodipodi:type="inkscape:box3dside"
         id="path52"
         style="fill:#e9e9ff;fill-rule:evenodd;stroke:none;stroke-linejoin:round"
         inkscape:box3dsidetype="11"
         d="m 101.91973,171.99867 11.42974,-13.97192 v 36.70808 l -11.42974,9.30569 z"
         points="113.34947,158.02675 113.34947,194.73483 101.91973,204.04052 101.91973,171.99867 " />
      <path
         sodipodi:type="inkscape:box3dside"
         id="path44"
         style="fill:#4d4d9f;fill-rule:evenodd;stroke:none;stroke-linejoin:round"
         inkscape:box3dsidetype="5"
         d="m 83.204069,158.34534 10.153286,-18.61735 19.992115,18.29876 -11.42974,13.97192 z"
         points="93.357355,139.72799 113.34947,158.02675 101.91973,171.99867 83.204069,158.34534 " />
      <path
         sodipodi:type="inkscape:box3dside"
         id="path50"
         style="fill:#afafde;fill-rule:evenodd;stroke:none;stroke-linejoin:round"
         inkscape:box3dsidetype="13"
         d="m 83.204069,194.94702 10.153286,-12.39968 19.992115,12.18749 -11.42974,9.30569 z"
         points="93.357355,182.54734 113.34947,194.73483 101.91973,204.04052 83.204069,194.94702 " />
      <path
         sodipodi:type="inkscape:box3dside"
         id="path48"
         style="fill:#d7d7ff;fill-rule:evenodd;stroke:none;stroke-linejoin:round"
         inkscape:box3dsidetype="14"
         d="m 93.357355,139.72799 v 42.81935 l 19.992115,12.18749 v -36.70808 z"
         points="93.357355,182.54734 113.34947,194.73483 113.34947,158.02675 93.357355,139.72799 " />
      <path
         sodipodi:type="inkscape:box3dside"
         id="path46"
         style="fill:#8686bf;fill-rule:evenodd;stroke:none;stroke-linejoin:round"
         inkscape:box3dsidetype="3"
         d="m 83.204069,158.34534 10.153286,-18.61735 v 42.81935 l -10.153286,12.39968 z"
         points="93.357355,139.72799 93.357355,182.54734 83.204069,194.94702 83.204069,158.34534 " />
    </g>
    <flowRoot
       xml:space="preserve"
       id="flowRoot68"
       style="fill:black;fill-opacity:1;stroke:none;font-family:sans-serif;font-style:normal;font-weight:normal;font-size:40px;line-height:1.25;letter-spacing:0px;word-spacing:0px"><flowRegion
         id="flowRegion70"><rect
           id="rect72"
           width="88.571426"
           height="91.428574"
           x="257.14285"
           y="442.51968" /></flowRegion><flowPara
         id="flowPara74"></flowPara></flowRoot>    <flowRoot
       xml:space="preserve"
       id="flowRoot76"
       style="fill:black;fill-opacity:1;stroke:none;font-family:sans-serif;font-style:normal;font-weight:normal;font-size:40px;line-height:1.25;letter-spacing:0px;word-spacing:0px"><flowRegion
         id="flowRegion78"><rect
           id="rect80"
           width="68.571426"
           height="82.85714"
           x="274.28571"
           y="442.51968" /></flowRegion><flowPara
         id="flowPara82"></flowPara></flowRoot>    <flowRoot
       xml:space="preserve"
       id="flowRoot84"
       style="fill:black;fill-opacity:1;stroke:none;font-family:sans-serif;font-style:normal;font-weight:normal;font-size:40px;line-height:1.25;letter-spacing:0px;word-spacing:0px"><flowRegion
         id="flowRegion86"><rect
           id="rect88"
           width="156.9565"
           height="244.0491"
           x="225.90065"
           y="147.04201" /></flowRegion><flowPara
         id="flowPara90"></flowPara></flowRoot>    <text
       xml:space="preserve"
       style="font-style:normal;font-weight:normal;font-size:14.11111069px;line-height:1.25;font-family:sans-serif;letter-spacing:0px;word-spacing:0px;fill:#000000;fill-opacity:1;stroke:none;stroke-width:0.26458332"
       x="93.738098"
       y="187.3869"
       id="text12"><tspan
         sodipodi:role="line"
         id="tspan10"
         x="93.738098"
         y="187.3869"
         style="font-size:50.79999924px;stroke-width:0.26458332">t</tspan></text>
    <path
       style="fill:#ac9393;stroke-width:2.85714293"
       d="m 385.15075,702.52839 c -9.49027,-4.5852 -12.29361,-16.93298 -12.29361,-54.14934 0,-31.9546 -0.32145,-33.85936 -5.71428,-33.85936 -3.17461,0 -5.71429,-1.90477 -5.71429,-4.28572 0,-2.38095 2.53968,-4.28571 5.71429,-4.28571 5.02164,0 5.71428,-1.90477 5.71428,-15.71429 0,-14.76767 0.42129,-15.71428 6.99355,-15.71428 6.42223,0 7.06409,1.22537 7.85714,15 l 0.8636,15 17.85714,0.85062 c 13.31701,0.63435 17.85714,1.90559 17.85714,5 0,3.20864 -4.27552,4.14938 -18.85835,4.14938 h -18.85835 l 1.00121,37.24858 c 1.13475,42.21675 1.36273,42.63745 23.14407,42.70766 11.65208,0.0376 13.57142,0.8519 13.57142,5.75804 0,5.07418 -1.8403,5.69263 -16.42857,5.52092 -9.03571,-0.10635 -19.25359,-1.55828 -22.70639,-3.2265 z"
       id="path94"
       inkscape:connector-curvature="0"
       transform="scale(0.26458333)" />
    <path
       style="fill:#00e7ff;stroke-width:2.85714293;opacity:0.63860066;fill-opacity:0.92574257"
       d="m 383.07381,699.31714 c -5.50578,-4.02593 -9.75867,-32.13321 -10.06261,-66.5037 -0.13471,-15.23289 -0.96135,-17.78115 -6.58263,-20.29217 L 360,609.64963 l 6.42857,-2.04322 c 5.05223,-1.60578 6.42857,-4.18319 6.42857,-12.03852 0,-5.49742 1.37538,-12.56522 3.0564,-15.70623 4.8576,-9.0765 11.22932,-1.37136 11.22932,13.5793 v 12.5073 l 13.57143,0.20083 c 7.46428,0.11045 16.08724,1.1848 19.16212,2.38745 4.49562,1.75833 3.37634,2.5523 -5.71428,4.05345 -6.21774,1.02675 -15.31386,1.88097 -20.21358,1.89826 l -8.9086,0.0314 1.44053,33.57142 c 1.81774,42.36206 3.22545,46.42858 16.07227,46.42858 11.40918,0 18.87582,2.38129 18.87582,6.01996 0,4.0246 -32.59995,2.98551 -38.35476,-1.22251 z"
       id="path96"
       inkscape:connector-curvature="0"
       transform="scale(0.26458333)" />
  </g>
</svg>
